<?xml version="1.0"?>
<svg width="640" height="480" xmlns="http://www.w3.org/2000/svg" xmlns:svg="http://www.w3.org/2000/svg">
 <!-- Created with SVG-edit - http://svg-edit.googlecode.com/ -->

 <g>
  <title>Layer 1</title>
  <path fill="#aaffff" stroke="#000000" stroke-width="5" stroke-dasharray="null" stroke-linejoin="null" stroke-linecap="null" d="m127.723633,37.04364c-0.017075,-9.917908 -8.046555,-17.95752 -17.960907,-17.9711l0,0l-55.058983,0c-2.268791,-7.286079 -9.0336,-12.618744 -17.09079,-12.625267l-12.912987,0c-9.917999,0.006523 -17.954365,8.046608 -17.971447,17.964439l0,63.729462c0.017082,9.910797 8.053448,17.944016 17.971447,17.964493l85.065979,0c9.904266,-0.020477 17.944107,-8.053696 17.964752,-17.964493l0,-51.097534l-0.007065,0zm-103.023666,-21.61763l12.912987,0c4.698456,-0.02066 8.612244,3.742462 8.906975,8.423645l0.260513,4.208694l62.985504,0c4.911026,0.006546 8.972076,4.071289 8.978989,8.985291l0,2.221054c-2.652557,-1.549072 -5.69574,-2.501648 -8.982208,-2.501648l-85.069649,0c-3.286537,0 -6.333336,0.959229 -8.982315,2.508179l0,-14.866486c0.013748,-4.914078 4.07473,-8.971771 8.989204,-8.978729zm85.062759,81.694l-85.062759,0c-4.910919,-0.00708 -8.972115,-4.0784 -8.989204,-8.978836l0,-33.413788l0.003525,0c0.010223,-4.921387 4.071205,-8.978745 8.98568,-8.985611l85.065979,0c4.911026,0.006866 8.944626,4.043671 8.985825,8.937576l0,33.454819c-0.020584,4.921463 -4.081665,8.97876 -8.989044,8.98584z" id="svg_5"/>
  <text fill="#000000" stroke="#000000" stroke-width="0" stroke-dasharray="null" stroke-linejoin="null" stroke-linecap="null" x="65" y="81" id="svg_6" font-size="24" font-family="serif" text-anchor="middle" xml:space="preserve">Jeff-Co</text>
 </g>
</svg>